<svg width="194" height="194" viewBox="0 0 194 194" fill="none" xmlns="http://www.w3.org/2000/svg">
<circle cx="97" cy="97" r="97" fill="#D67976"/>
<path fill-rule="evenodd" clip-rule="evenodd" d="M108.131 127.878C113.54 126.945 117.77 122.57 118.487 117.09L138.124 125.818C142.298 127.673 147 124.618 147 120.05V72.9505C147 68.3824 142.298 65.3268 138.124 67.182L118.487 75.9097C117.677 69.7181 112.381 64.9375 105.969 64.9375H63.1737L108.131 127.878ZM59.487 64.9375H58.625C51.6524 64.9375 46 70.5899 46 77.5625V115.438C46 122.41 51.6524 128.062 58.625 128.062H104.576L59.487 64.9375Z" fill="white"/>
<path fill-rule="evenodd" clip-rule="evenodd" d="M112.869 142.522L49.7441 54.1468L54.8808 50.4778L118.006 138.853L112.869 142.522Z" fill="white" stroke="#D67976" stroke-width="4"/>
</svg>
