<svg width="194" height="194" viewBox="0 0 194 194" fill="none" xmlns="http://www.w3.org/2000/svg">
<circle cx="97" cy="97" r="97" fill="#D67976"/>
<path d="M129.688 97.5C129.688 101.133 129.086 104.625 127.976 107.883L122.736 102.643C123.073 100.981 123.25 99.2612 123.25 97.5V91.0625C123.25 89.2848 124.691 87.8438 126.469 87.8438C128.246 87.8438 129.688 89.2848 129.688 91.0625V97.5Z" fill="white"/>
<path d="M97.5 123.25C102.765 123.25 107.661 121.67 111.739 118.958L116.364 123.583C111.881 126.831 106.527 128.952 100.719 129.529V142.562H120.031C121.809 142.562 123.25 144.004 123.25 145.781C123.25 147.559 121.809 149 120.031 149H74.9688C73.1911 149 71.75 147.559 71.75 145.781C71.75 144.004 73.1911 142.562 74.9688 142.562H94.2812V129.529C78.0159 127.914 65.3125 114.19 65.3125 97.5V91.0625C65.3125 89.2848 66.7536 87.8438 68.5312 87.8438C70.3089 87.8438 71.75 89.2848 71.75 91.0625V97.5C71.75 111.721 83.2787 123.25 97.5 123.25Z" fill="white"/>
<path d="M116.812 65.3125V96.719L79.2047 59.1112C81.788 51.4871 89.0032 46 97.5 46C108.166 46 116.812 54.6465 116.812 65.3125Z" fill="white"/>
<path d="M107.064 114.282L78.1875 85.406V97.5C78.1875 108.166 86.834 116.812 97.5 116.812C100.979 116.812 104.244 115.892 107.064 114.282Z" fill="white"/>
<path d="M56.5992 54.7134L133.849 131.963L138.401 127.411L61.1512 50.1614L56.5992 54.7134Z" fill="white"/>
</svg>
